<?xml version="1.0" ?><svg id="Layer_1_1_" style="enable-background:new 0 0 64 64;" version="1.1" viewBox="0 0 64 64" xml:space="preserve" xmlns="http://www.w3.org/2000/svg" xmlns:xlink="http://www.w3.org/1999/xlink"><path d="M32,1C14.907,1,1,14.907,1,32s13.907,31,31,31s31-13.907,31-31S49.093,1,32,1z M32,61C16.009,61,3,47.991,3,32  S16.009,3,32,3s29,13.009,29,29S47.991,61,32,61z"/><path d="M32,5C17.112,5,5,17.112,5,32s12.112,27,27,27s27-12.112,27-27S46.888,5,32,5z M32,57C18.215,57,7,45.785,7,32  S18.215,7,32,7s25,11.215,25,25S45.785,57,32,57z"/><path d="M35.536,20.536c3.172-3.172,4.104-7.21,2.121-9.192c-1.982-1.981-6.02-1.051-9.192,2.121  c-3.172,3.172-4.104,7.21-2.121,9.192c0.703,0.703,1.665,1.04,2.755,1.04C31.081,23.696,33.489,22.583,35.536,20.536z   M27.757,21.243c-1.003-1.003-0.379-3.864,2.121-6.364c1.747-1.747,3.67-2.578,5.012-2.578c0.579,0,1.05,0.154,1.352,0.457  c1.003,1.003,0.379,3.864-2.121,6.364C31.621,21.621,28.761,22.246,27.757,21.243z"/><path d="M31.293,17.707L31.293,17.707c0.39,0.39,1.024,0.39,1.414,0l0,0c0.39-0.39,0.39-1.024,0-1.414l0,0  c-0.39-0.39-1.024-0.39-1.414,0l0,0C30.902,16.683,30.902,17.317,31.293,17.707z"/><path d="M25,34.393c0-1.821-2.306-2.426-4.747-3.066c-0.984-0.258-2.759-0.724-3.201-1.131c0.441-0.407,2.217-0.873,3.201-1.131  c1.341-0.352,2.608-0.684,3.491-1.203l-1.013-1.725c-0.645,0.379-1.834,0.691-2.985,0.993C17.306,27.771,15,28.375,15,30.196  c0,1.82,2.305,2.425,4.746,3.065c0.984,0.258,2.761,0.724,3.202,1.132c-0.44,0.407-2.217,0.874-3.202,1.132  C17.305,36.167,15,36.772,15,38.593c0,1.822,2.305,2.428,4.746,3.069c0.985,0.259,2.765,0.727,3.203,1.135  c-0.438,0.408-2.217,0.875-3.203,1.134c-1.343,0.353-2.612,0.686-3.495,1.207l1.016,1.723c0.644-0.38,1.835-0.693,2.987-0.995  C22.695,45.225,25,44.619,25,42.797s-2.306-2.428-4.746-3.069c-0.985-0.259-2.764-0.726-3.202-1.134  c0.439-0.408,2.217-0.875,3.202-1.133C22.695,36.82,25,36.214,25,34.393z"/><path d="M24,51L24,51c0.552,0,1-0.448,1-1v0c0-0.552-0.448-1-1-1h0c-0.552,0-1,0.448-1,1v0C23,50.552,23.448,51,24,51z"/><path d="M29,53L29,53c0.552,0,1-0.448,1-1v0c0-0.552-0.448-1-1-1h0c-0.552,0-1,0.448-1,1v0C28,52.552,28.448,53,29,53z"/><path d="M28,46L28,46c-0.552,0-1,0.448-1,1v0c0,0.552,0.448,1,1,1h0c0.552,0,1-0.448,1-1v0C29,46.448,28.552,46,28,46z"/><path d="M40,33L40,33c-0.552,0-1,0.448-1,1v0c0,0.552,0.448,1,1,1h0c0.552,0,1-0.448,1-1v0C41,33.448,40.552,33,40,33z"/><path d="M45,37L45,37c0.552,0,1-0.448,1-1v0c0-0.552-0.448-1-1-1h0c-0.552,0-1,0.448-1,1v0C44,36.552,44.448,37,45,37z"/><path d="M41,40L41,40c0.552,0,1-0.448,1-1v0c0-0.552-0.448-1-1-1h0c-0.552,0-1,0.448-1,1v0C40,39.552,40.448,40,41,40z"/><path d="M49.778,31.05l1.414-1.414l-2.829-2.829l-1.414,1.414l0.707,0.707l-0.759,0.759c-1.106-0.86-2.44-1.436-3.898-1.619V27h1v-2  h-4v2h1v1.069c-1.458,0.183-2.792,0.759-3.898,1.619l-0.759-0.759l0.707-0.707l-1.414-1.414l-2.829,2.829l1.414,1.414l0.707-0.707  l0.759,0.759c-0.86,1.106-1.436,2.44-1.619,3.898H33v-1h-2v4h2v-1h1.069c0.183,1.458,0.759,2.792,1.619,3.898l-0.759,0.759  l-0.707-0.707l-1.414,1.414l2.829,2.829l1.414-1.414l-0.707-0.707l0.759-0.759c1.106,0.86,2.44,1.436,3.898,1.619V45h-1v2h4v-2h-1  v-1.069c1.458-0.183,2.792-0.759,3.898-1.619l0.759,0.759l-0.707,0.707l1.414,1.414l2.829-2.829l-1.414-1.414l-0.707,0.707  l-0.759-0.759c0.86-1.106,1.436-2.44,1.619-3.898H51v1h2v-4h-2v1h-1.069c-0.183-1.458-0.759-2.792-1.619-3.898l0.759-0.759  L49.778,31.05z M42,42c-3.309,0-6-2.691-6-6s2.691-6,6-6s6,2.691,6,6S45.309,42,42,42z"/></svg>