<?xml version="1.0" ?><svg viewBox="0 0 64 64" xmlns="http://www.w3.org/2000/svg"><g id="Seaweed"><path d="M44.81,16.5a3.22,3.22,0,1,0-3.22,3.22A3.22,3.22,0,0,0,44.81,16.5Zm-4.43,0a1.22,1.22,0,0,1,2.43,0,1.22,1.22,0,1,1-2.43,0Z"/><path d="M44.23,56.54l1.2,0c2.1,0,3.89-.17,5.07-1.33a4.58,4.58,0,0,0,1.19-3.44A8.76,8.76,0,0,0,46,43.6c-1.35-3.91-.66-5.43,3.41-11.31,2.43-3.5,1.6-9.49-1.74-12.57a1,1,0,0,0-1.1-.17,1,1,0,0,0-.58.95c.11,2.57-.27,3.78-4.85,7.29a11.38,11.38,0,0,0-4.63,7.92c-.12-2,.71-4.18,1.54-6.29,1.28-3.24,2.6-6.59-.18-9-3.77-3.26-4.41-8-3.11-11a1,1,0,0,0-1.28-1.33c-5.16,2-7.82,6.56-6.45,11,1,3.38,1.1,4.48-1.29,8.61a4.26,4.26,0,0,0-1.64-1.09c-4.18-1.58-6.19-5.37-6-8.3a1,1,0,0,0-.56-1,1,1,0,0,0-1.1.15c-3.79,3.38-4.64,8.11-2.06,11.5,2.18,2.87,2.39,3.57,1.27,9.32a26.22,26.22,0,0,0-.69,5.83,8.74,8.74,0,0,0-4.58,7.65,4.58,4.58,0,0,0,1.19,3.44c1.18,1.16,3,1.33,5.07,1.33l1.2,0h4.1c1.69,1.5,4.38,1.48,7.49,1.43h3.28l1.5,0c2.47,0,4.59-.19,6-1.45C41.78,56.56,42.13,56.52,44.23,56.54ZM42.3,29.38c3.37-2.58,4.89-4.21,5.42-6.27,1.35,2.54,1.46,5.94,0,8-3.72,5.37-5.11,7.77-4,12a7.17,7.17,0,0,0-.81-.08,8.54,8.54,0,0,0-2.58.4c.25-5.77,2-8.32,2.7-9.31a4.26,4.26,0,0,0,.32-.49,1,1,0,0,0-.42-1.33,1,1,0,0,0-1.35.4l-.18.27c-.73,1-2.5,3.55-3,8.91-.26-.66-.51-1.3-.74-1.92a22.16,22.16,0,0,0,.57-2.83C38.67,34.42,39.06,31.86,42.3,29.38ZM28.89,18.49c-1-3.19.83-5.92,3.34-7.56a12.31,12.31,0,0,0,4.28,11c1.62,1.4.92,3.48-.37,6.75-1.09,2.77-2.33,5.91-1.37,9,.55,1.73,1.24,3.63,2.07,5.66a10.51,10.51,0,0,0-5.27-1.72c-1.73-5.77-.54-8.53.53-10.95l.29-.65a1,1,0,0,0-1.84-.79l-.27.63c-1.07,2.4-2.47,5.68-.76,11.85a10.64,10.64,0,0,0-5.75,2.71c-.21-.12-.4-.26-.61-.37-.79-6.94.67-9.38,3.28-13.69C30,24.49,30.29,23.05,28.89,18.49ZM17.54,38.7c1.18-6.06,1-7.49-1.64-10.92-1.75-2.31-1.15-5.06.35-7.18a11.27,11.27,0,0,0,7.09,7.87,2.19,2.19,0,0,1,1.24,1.09c-.58,1-1.1,1.84-1.57,2.71a29.14,29.14,0,0,1-2.57-3.45,1,1,0,1,0-1.75,1,31.29,31.29,0,0,0,3.38,4.48,18.4,18.4,0,0,0-1,9,8.82,8.82,0,0,0-2-.25,8.93,8.93,0,0,0-2.21.31A29.63,29.63,0,0,1,17.54,38.7Zm.2,15.84c-2.17,0-4,.06-4.84-.73a2.77,2.77,0,0,1-.59-2A6.77,6.77,0,0,1,19.08,45a6.7,6.7,0,0,1,3.34.88,10.6,10.6,0,0,0-2.13,6.39,7.58,7.58,0,0,0,.31,2.24H17.74ZM32.67,56,31,56l-1.67,0c-2.76,0-5.15.07-6.23-1a3.64,3.64,0,0,1-.81-2.69,8.71,8.71,0,1,1,17.42,0A3.64,3.64,0,0,1,38.9,55C37.82,56.05,35.43,56,32.67,56Zm8.73-1.45a7.58,7.58,0,0,0,.31-2.24,10.6,10.6,0,0,0-2.13-6.39A6.7,6.7,0,0,1,42.92,45a6.77,6.77,0,0,1,6.77,6.76,2.77,2.77,0,0,1-.59,2c-.81.79-2.68.76-4.84.73Z"/><path d="M25.52,11.58a3.59,3.59,0,1,0-3.58,3.59A3.59,3.59,0,0,0,25.52,11.58Zm-5.17,0a1.59,1.59,0,1,1,1.59,1.59A1.59,1.59,0,0,1,20.35,11.58Z"/></g></svg>